Coordinates
version=1
nRows=16
nColumns=22
inDegrees=yes

Units are S.I. units (second, meters, Newtons, ...)
If the header above contains a line with 'inDegrees', this indicates whether rotational values are in degrees (yes) or radians (no).

endheader
time	pelvis_tilt	pelvis_list	pelvis_rotation	pelvis_tx	pelvis_ty	pelvis_tz	hip_flexion_r	hip_adduction_r	hip_rotation_r	knee_angle_r	ankle_angle_r	subtalar_angle_r	hip_flexion_l	hip_adduction_l	hip_rotation_l	knee_angle_l	ankle_angle_l	subtalar_angle_l	lumbar_extension	lumbar_bending	lumbar_rotation
      3.67000000	     -7.19238667	     -2.98764961	    -56.13459828	      1.05101435	      0.82204106	      0.92551978	    -12.78173070	      3.39129928	     15.04689548	    -21.99497314	     25.89104003	     -2.22079349	     34.33925368	    -19.91430841	     -1.23584013	    -15.65167409	      4.26998408	      4.78683239	     -1.09372755	      7.53881515	     25.78763076
      3.68000000	     -7.32856146	     -2.68669411	    -56.42215151	      1.06090587	      0.82075572	      0.93080966	    -12.90427747	      2.83703458	     15.31481263	    -22.31000039	     25.16539054	     -1.51185989	     34.52678746	    -19.74354260	     -1.22322999	    -16.54871100	      3.07883329	      5.52821025	     -0.71223182	      7.40167694	     25.66553373
      3.69000000	     -7.40588589	     -2.34582300	    -56.67344979	      1.07082303	      0.81966769	      0.93601207	    -12.95670868	      2.23089212	     15.53842786	    -22.71710582	     24.32396935	     -0.73360597	     34.78973336	    -19.47942645	     -1.20362635	    -17.58435253	      1.72415303	      6.41585216	     -0.34523347	      7.17535623	     25.51381077
      3.70000000	     -7.40426784	     -1.96563937	    -56.87129646	      1.08074385	      0.81880200	      0.94109802	    -12.92451697	      1.56736790	     15.66384756	    -23.26793066	     23.40737078	      0.08910050	     35.12485011	    -19.09896021	     -1.15610534	    -18.76911539	      0.31364210	      7.35891358	     -0.00886010	      6.83497476	     25.34640894
      3.71000000	     -7.30232204	     -1.55264763	    -56.99220445	      1.09070847	      0.81820954	      0.94605551	    -12.82400718	      0.84215734	     15.67782099	    -23.96996831	     22.37660634	      0.90395576	     35.50242095	    -18.57494471	     -1.08882676	    -20.09202897	     -0.95618044	      8.21305448	      0.28249357	      6.36773160	     25.11634916
      3.72000000	     -7.09896957	     -1.14354827	    -57.02047173	      1.10071670	      0.81796252	      0.95089208	    -12.69895362	      0.08261341	     15.57828058	    -24.80614526	     21.21654415	      1.72109109	     35.86755464	    -17.91806583	     -0.99636583	    -21.50980315	     -1.98677829	      8.89494980	      0.49493082	      5.79056994	     24.82651165
      3.73000000	     -6.80820804	     -0.74584413	    -56.95021213	      1.11079412	      0.81807824	      0.95561582	    -12.55531319	     -0.69341970	     15.36726123	    -25.76309177	     19.88639995	      2.51628582	     36.19193374	    -17.13882383	     -0.89960692	    -22.97004280	     -2.68156794	      9.33361996	      0.63652411	      5.12534287	     24.47835025
      3.74000000	     -6.45429381	     -0.38145685	    -56.77788976	      1.12093493	      0.81857494	      0.96021474	    -12.40324870	     -1.44874070	     15.05977639	    -26.82648559	     18.37395970	      3.24376593	     36.44283569	    -16.26608932	     -0.81135559	    -24.41389487	     -3.03042330	      9.48811229	      0.70106456	      4.41256861	     24.06744769
      3.75000000	     -6.07297752	     -0.05795003	    -56.52033256	      1.13111913	      0.81942848	      0.96467318	    -12.21864763	     -2.15216805	     14.67574205	    -28.00100448	     16.67265127	      3.88881078	     36.60449371	    -15.33948372	     -0.74034554	    -25.78693316	     -3.03371597	      9.38816216	      0.70342123	      3.69976531	     23.61443138
      3.76000000	     -5.70201886	      0.22007900	    -56.20180679	      1.14130599	      0.82060312	      0.96896220	    -11.96854879	     -2.77671789	     14.23922007	    -29.29181408	     14.79588946	      4.42951052	     36.66871672	    -14.40176236	     -0.68593773	    -27.03848137	     -2.74573548	      9.09089068	      0.65932116	      3.03709181	     23.14358686
      3.77000000	     -5.38006769	      0.44374539	    -55.86160844	      1.15141050	      0.82205902	      0.97308781	    -11.61472985	     -3.29355458	     13.78799965	    -30.71320235	     12.76975545	      4.85663278	     36.62816688	    -13.51248171	     -0.65621316	    -28.12927223	     -2.23661812	      8.66820846	      0.58430616	      2.47338303	     22.68022562
      3.78000000	     -5.13338431	      0.61565856	    -55.54180137	      1.16133691	      0.82373809	      0.97704093	    -11.11329534	     -3.69668364	     13.35392270	    -32.28106673	     10.61990943	      5.17579340	     36.49028163	    -12.71728536	     -0.65961454	    -29.04033689	     -1.56827533	      8.16272586	      0.49381132	      2.03706127	     22.27263284
      3.79000000	     -4.97418192	      0.74393341	    -55.26534863	      1.17101164	      0.82559194	      0.98083336	    -10.42672273	     -3.99110201	     12.92854532	    -34.01511955	      8.38953086	      5.32601244	     36.26051310	    -12.03479160	     -0.68193655	    -29.75135016	     -0.84116637	      7.75401424	      0.40521222	      1.73509448	     21.93198232
      3.80000000	     -4.92286552	      0.83549585	    -55.09968403	      1.18028945	      0.82756813	      0.98453072	     -9.51595030	     -4.16962089	     12.60129107	    -35.92288562	      6.09871578	      5.39072067	     35.95914837	    -11.52870633	     -0.79560594	    -30.28218570	     -0.04911262	      7.22889336	      0.33901320	      1.58330525	     21.70985618
      3.81000000	     -4.95675855	      0.88529212	    -55.02925991	      1.18916859	      0.82964216	      0.98813837	     -8.41293863	     -4.25427909	     12.31877723	    -37.97562643	      3.77728181	      5.30065991	     35.58271252	    -11.17314176	     -0.96395547	    -30.65082175	      0.78380186	      6.69351549	      0.27733671	      1.55796528	     21.57680943
      3.82000000	     -5.06142812	      0.94129549	    -55.05874519	      1.19757740	      0.83175278	      0.99164469	     -7.07199187	     -4.28615720	     12.06246131	    -40.18528215	      1.43154586	      5.06763210	     35.16918784	    -10.93116900	     -1.17945330	    -30.85660204	      1.52791193	      6.22147402	      0.25175748	      1.60713941	     21.53869535
